<?xml version="1.0" encoding="UTF-8"?>
<svg version="1.1" xmlns="http://www.w3.org/2000/svg" width="512" height="512">
<path d="M0 0 C2.41162109 0.97119141 2.41162109 0.97119141 4.7734375 2.3515625 C5.66820801 2.865979 6.56297852 3.38039551 7.48486328 3.91040039 C8.4386084 4.47621826 9.39235352 5.04203613 10.375 5.625 C11.38159668 6.20822021 12.38819336 6.79144043 13.42529297 7.39233398 C16.62414348 9.24937149 19.81225747 11.12397176 23 13 C26.04072914 14.7734373 29.08339957 16.54349483 32.12670898 18.3125 C34.12501644 19.47884377 36.11934538 20.6520309 38.10961914 21.83203125 C43.03377327 24.74405669 47.97402523 27.53560146 53.07421875 30.12890625 C54.04020996 30.63478271 55.00620117 31.14065918 56.00146484 31.66186523 C57.81403643 32.60530292 59.64328664 33.51767354 61.49072266 34.39086914 C65.0282522 36.2618868 67.48824821 37.66953757 68.96510315 41.50909424 C69.27930458 42.95333771 69.27930458 42.95333771 69.59985352 44.42675781 C69.83824448 45.49737457 70.07663544 46.56799133 70.32225037 47.67105103 C70.54590775 48.76960419 70.76956512 49.86815735 71 51 C71.20911514 52.01129974 71.41823029 53.02259949 71.63368225 54.06454468 C72.26146184 57.19776426 72.8574525 60.33561919 73.4453125 63.4765625 C73.66065643 64.60903412 73.87600037 65.74150574 74.09786987 66.90829468 C74.77685266 70.47991875 75.45141691 74.05235394 76.125 77.625 C76.80591364 81.23331371 77.48786956 84.84141159 78.17355347 88.44882202 C78.59820481 90.68300545 79.02010799 92.91771333 79.43899536 95.15298462 C79.62944427 96.15518036 79.81989319 97.1573761 80.01611328 98.18994141 C80.18249298 99.07308014 80.34887268 99.95621887 80.52029419 100.86611938 C80.91872018 103.03756452 80.91872018 103.03756452 82 105 C82.60134766 104.64921387 83.20269531 104.29842773 83.82226562 103.93701172 C85.10133789 103.19088623 85.10133789 103.19088623 86.40625 102.4296875 C87.84713989 101.58869507 87.84713989 101.58869507 89.31713867 100.73071289 C91.45682022 99.48320814 93.59762785 98.23763301 95.73950195 96.99389648 C101.44186775 93.6789356 107.11968553 90.33476631 112.76171875 86.91796875 C113.839375 86.27166504 114.91703125 85.62536133 116.02734375 84.95947266 C118.10600529 83.71169761 120.17788101 82.45253548 122.2421875 81.18115234 C123.18707031 80.61734863 124.13195312 80.05354492 125.10546875 79.47265625 C125.93199951 78.97000244 126.75853027 78.46734863 127.61010742 77.94946289 C130.60932276 76.75792663 131.95408008 77.00481016 135 78 C137.48168945 79.17651367 137.48168945 79.17651367 140.11328125 80.66796875 C141.59634766 81.50279785 141.59634766 81.50279785 143.109375 82.35449219 C144.69492187 83.26183105 144.69492187 83.26183105 146.3125 84.1875 C147.41464844 84.81172852 148.51679688 85.43595703 149.65234375 86.07910156 C160.23899532 92.09287431 170.76003278 98.21961594 181.25537109 104.39111328 C183.8901293 105.93559438 186.53152255 107.46794811 189.17578125 108.99609375 C189.9646875 109.4540332 190.75359375 109.91197266 191.56640625 110.38378906 C193.01363694 111.2238121 194.46272198 112.06065249 195.9140625 112.89355469 C203.5007176 117.31652825 203.5007176 117.31652825 204.81632996 121.75248718 C205.02284683 122.86501358 205.22936371 123.97753998 205.44213867 125.1237793 C205.6821611 126.38486008 205.92218353 127.64594086 206.16947937 128.94523621 C206.41922694 130.32151818 206.66871736 131.69784683 206.91796875 133.07421875 C207.18170073 134.48259862 207.44647025 135.89078456 207.7122345 137.29878235 C208.40811546 141.00078215 209.0898785 144.70524682 209.76873779 148.41040039 C210.46427318 152.19250714 211.1731239 155.97211395 211.88085938 159.75195312 C213.26695274 167.16558581 214.63814143 174.58187287 216 182 C219.42703233 180.65516873 222.60969702 179.19489821 225.81640625 177.3828125 C226.73631348 176.86356201 227.6562207 176.34431152 228.60400391 175.80932617 C229.58030762 175.25349854 230.55661133 174.6976709 231.5625 174.125 C232.57231934 173.55434814 233.58213867 172.98369629 234.62255859 172.39575195 C239.72509847 169.49670847 244.7852375 166.54562164 249.78515625 163.47265625 C250.68613037 162.92013184 251.58710449 162.36760742 252.51538086 161.79833984 C254.22174497 160.74505232 255.92209447 159.6819416 257.61547852 158.60791016 C258.76874634 157.89513916 258.76874634 157.89513916 259.9453125 157.16796875 C260.61062988 156.74797607 261.27594727 156.3279834 261.96142578 155.89526367 C264.53582022 154.76468829 266.20836482 154.67981533 269 155 C271.32641602 156.03125 271.32641602 156.03125 273.75390625 157.5 C274.67695557 158.04954346 275.60000488 158.59908691 276.55102539 159.1652832 C277.54481201 159.77073975 278.53859863 160.37619629 279.5625 161 C281.71787 162.28663157 283.87415887 163.57172481 286.03125 164.85546875 C286.59308487 165.19152634 287.15491974 165.52758392 287.73377991 165.87382507 C293.69070867 169.43164169 299.71941318 172.86026022 305.75344849 176.28509521 C334.75682515 192.75682515 334.75682515 192.75682515 338 196 C338.29725485 200.61990908 337.80904137 204.61577852 336.65942383 209.08105469 C336.35697754 210.27347778 336.05453125 211.46590088 335.74291992 212.69445801 C335.39768357 214.02027926 335.05238467 215.34608423 334.70703125 216.671875 C334.33709773 218.11857189 333.96798703 219.56547939 333.59960938 221.01257324 C332.78389375 224.21080087 331.96310248 227.40766922 331.13858032 230.6036377 C329.78062204 235.86865673 328.43432226 241.13661142 327.09057617 246.40527344 C326.85264752 247.33814808 326.61471888 248.27102272 326.36958027 249.23216629 C325.87011694 251.19068114 325.37070599 253.14920935 324.87134361 255.10774994 C324.07493836 258.2299997 323.27748142 261.35197963 322.47993469 264.47393799 C317.51532938 283.91944133 312.61293739 303.38043054 307.71875 322.84375 C307.30945047 324.47130593 306.90015062 326.09886177 306.49085045 327.72641754 C303.80265366 338.4163786 301.1157475 349.10666395 298.42900801 359.79699135 C297.00872447 365.44812283 295.58835604 371.09923293 294.16760921 376.75024796 C293.37598969 379.89896947 292.58485861 383.04781314 291.79406834 386.19674301 C289.89745861 393.74642489 287.99331026 401.29406228 286.07234192 408.83758545 C285.34910857 411.68125604 284.62666258 414.52512554 283.90478516 417.36914062 C283.73115287 418.05275933 283.55752058 418.73637803 283.3786267 419.44071245 C281.15797594 428.19985604 279.0731064 436.97942769 277.12255859 445.80273438 C276.50212588 448.52030638 275.87749245 451.23686563 275.25064659 453.95296478 C274.72474653 456.30757937 274.25618386 458.66835972 273.79048157 461.03546143 C272.40262015 467.37758369 270.97680755 471.96803144 265.33007526 475.73086929 C262.62664813 477.31350201 259.83004897 478.65995007 257 480 C254.95262801 481.17349196 252.91331932 482.36130234 250.88671875 483.5703125 C248.82131324 484.75695187 246.7548799 485.94180379 244.6875 487.125 C242.42680219 488.42399 240.16639272 489.72348193 237.90625 491.0234375 C236.76800781 491.67795898 235.62976563 492.33248047 234.45703125 493.00683594 C228.85632691 496.23594259 223.27091343 499.49111146 217.6875 502.75 C216.68614014 503.33410645 215.68478027 503.91821289 214.65307617 504.52001953 C209.49121055 507.51962327 209.49121055 507.51962327 204.40820312 510.64916992 C201.02011174 512.54964738 198.83916891 512.46497973 195 512 C192.37112934 510.74885775 190.11531027 509.49825659 187.6875 507.9375 C186.18346711 507.01240912 184.67817369 506.08936568 183.171875 505.16796875 C182.35009766 504.66056152 181.52832031 504.1531543 180.68164062 503.63037109 C175.65593144 500.57486436 170.539305 497.67595186 165.4375 494.75 C163.21728815 493.46642214 160.99723762 492.18256521 158.77734375 490.8984375 C154.2233493 488.26958567 149.65176658 485.6752767 145.06640625 483.1015625 C142.877592 481.85939643 140.68878947 480.61720973 138.5 479.375 C136.95977173 478.52373535 136.95977173 478.52373535 135.38842773 477.65527344 C134.44555908 477.11676758 133.50269043 476.57826172 132.53125 476.0234375 C131.70173828 475.55856934 130.87222656 475.09370117 130.01757812 474.61474609 C126.18148492 471.54457179 125.64297777 466.79911289 124.77905273 462.15576172 C124.56220322 461.00461884 124.3453537 459.85347595 124.12193298 458.66744995 C123.89478104 457.43398834 123.66762909 456.20052673 123.43359375 454.9296875 C123.06855064 452.98469348 122.70350554 451.03969983 122.33834171 449.09472847 C121.82971763 446.37870851 121.32575593 443.66183147 120.82177734 440.94494629 C119.93744954 436.18143085 119.04722686 431.41901708 118.15480042 426.65701294 C117.68046499 424.12335026 117.2085037 421.58924177 116.73912048 419.05465698 C116.52542313 417.90981842 116.31172577 416.76497986 116.09155273 415.58544922 C115.81081154 414.07251785 115.81081154 414.07251785 115.5243988 412.52902222 C115.02911834 409.89231051 115.02911834 409.89231051 114 407 C110.71326526 408.88831693 107.42776985 410.77877412 104.14294434 412.67041016 C102.37388847 413.68813946 100.60348952 414.70350364 98.83300781 415.71875 C93.03716712 419.04893558 87.27685217 422.41771976 81.5859375 425.92578125 C80.10601318 426.83034058 80.10601318 426.83034058 78.59619141 427.75317383 C76.73308278 428.89664117 74.87815745 430.05357693 73.03271484 431.2253418 C66.89771381 434.97111317 66.89771381 434.97111317 62.84375 435.1015625 C59.23989593 433.70556408 56.01938112 431.90864358 52.75 429.875 C51.23659305 428.95942174 49.72220426 428.04546516 48.20703125 427.1328125 C47.37896973 426.63168945 46.5509082 426.13056641 45.69775391 425.61425781 C41.73608314 423.24370875 37.7350675 420.94351834 33.73168945 418.64428711 C31.52482708 417.37525538 29.32155682 416.09995755 27.12182617 414.81860352 C21.50146874 411.54965775 15.8572663 408.37279656 10.1015625 405.34765625 C9.00271729 404.75307617 7.90387207 404.15849609 6.77172852 403.54589844 C4.69042359 402.42172461 2.59238838 401.32778954 0.47631836 400.27050781 C-6.3923849 396.49899314 -6.3923849 396.49899314 -8.01089954 392.5060997 C-8.2106372 391.5619231 -8.41037485 390.61774651 -8.61616516 389.6449585 C-8.84977564 388.57530098 -9.08338612 387.50564346 -9.3240757 386.40357208 C-9.54713072 385.2803933 -9.77018574 384.15721451 -10 383 C-10.223906 381.91736626 -10.447812 380.83473251 -10.67850304 379.71929169 C-11.40181754 376.14201891 -12.08953945 372.55924839 -12.77026367 368.97363281 C-13.03440687 367.59570126 -13.2988463 366.21782646 -13.56355286 364.84000301 C-14.28372855 361.08679507 -14.99969956 357.33279597 -15.71493316 353.57864356 C-16.48971857 349.51601106 -17.26847908 345.4541403 -18.04670715 341.39216614 C-19.56837423 333.44626549 -21.08634411 325.49966302 -22.60284454 317.55277485 C-23.83574915 311.092118 -25.06970765 304.63166334 -26.30444336 298.1713562 C-26.4804998 297.25018668 -26.65655624 296.32901716 -26.83794773 295.37993342 C-27.19568887 293.50816164 -27.55343242 291.63639033 -27.91117835 289.76461947 C-30.31257259 277.19979389 -32.71296687 264.63477799 -35.11105347 252.06932068 C-39.33037061 229.96222406 -43.55875666 207.85689909 -47.80008793 185.75401497 C-50.79695152 170.13621296 -53.78896752 154.51748788 -56.77707577 138.89800835 C-58.56385005 129.55903157 -60.35307772 120.22053845 -62.14828491 110.88317871 C-63.67610366 102.93647958 -65.19889807 94.98883841 -66.71516758 87.03992718 C-67.48899179 82.98408835 -68.26521794 78.92874818 -69.04792213 74.87461281 C-69.76484921 71.16091811 -70.47493427 67.44598226 -71.179649 63.72995138 C-71.55647112 61.75256472 -71.94055976 59.77656705 -72.32492352 57.80063248 C-73.45787344 51.78939466 -74.47223425 46.12152432 -74 40 C-72.40258789 38.1171875 -72.40258789 38.1171875 -70.16015625 36.875 C-69.33402832 36.39675781 -68.50790039 35.91851562 -67.65673828 35.42578125 C-66.78001465 34.95527344 -65.90329102 34.48476563 -65 34 C-64.17097168 33.51917969 -63.34194336 33.03835937 -62.48779297 32.54296875 C-59.82099852 30.99723739 -57.13239581 29.49615037 -54.4375 28 C-44.09603332 22.20810302 -33.84136724 16.27849023 -23.61328125 10.2890625 C-22.7001416 9.75829102 -21.78700195 9.22751953 -20.84619141 8.68066406 C-18.82818433 7.48903937 -16.82669334 6.26924208 -14.83740234 5.03027344 C-13.26853271 4.06782715 -13.26853271 4.06782715 -11.66796875 3.0859375 C-10.25487427 2.20107666 -10.25487427 2.20107666 -8.81323242 1.29833984 C-5.5455947 -0.20971339 -3.56184168 -0.41115214 0 0 Z M-10.234375 12.7890625 C-11.27247314 13.39459961 -12.31057129 14.00013672 -13.38012695 14.62402344 C-14.49218506 15.2843457 -15.60424316 15.94466797 -16.75 16.625 C-17.90601602 17.30322446 -19.06251677 17.98062333 -20.21948242 18.65722656 C-22.61492386 20.05972639 -25.00750429 21.46693125 -27.39794922 22.87792969 C-31.97350109 25.57698511 -36.56701134 28.24485129 -41.15917969 30.91552734 C-44.16629822 32.66494579 -47.17181177 34.4170553 -50.17578125 36.171875 C-51.39648315 36.8848877 -51.39648315 36.8848877 -52.6418457 37.61230469 C-53.42003662 38.07024414 -54.19822754 38.52818359 -55 39 C-55.92449951 39.51208008 -56.84899902 40.02416016 -57.80151367 40.55175781 C-58.52701416 41.02967773 -59.25251465 41.50759766 -60 42 C-60 42.66 -60 43.32 -60 44 C-59.05253906 44.5261792 -59.05253906 44.5261792 -58.0859375 45.06298828 C-24.51263605 63.73027603 -24.51263605 63.73027603 -8.15966797 73.73828125 C-7.26006348 74.28871094 -6.36045898 74.83914062 -5.43359375 75.40625 C-4.62849365 75.90447266 -3.82339355 76.40269531 -2.99389648 76.91601562 C-1.08539698 78.15921022 -1.08539698 78.15921022 1 78 C1.12178273 78.66031471 1.24356546 79.32062943 1.36903858 80.00095367 C6.06804149 105.4641012 10.86883387 130.90782654 15.69466686 156.34719086 C17.09037907 163.70532452 18.48335024 171.06395678 19.86987305 178.42382812 C21.09420579 184.92276486 22.32332962 191.42077308 23.55838376 197.91768122 C24.20796729 201.33560272 24.85519701 204.75393071 25.49666405 208.17338562 C26.2066497 211.95752682 26.92740846 215.73957056 27.64916992 219.52148438 C27.85854187 220.64647339 28.06791382 221.7714624 28.28363037 222.93054199 C28.4810936 223.95583008 28.67855682 224.98111816 28.88200378 226.03747559 C29.05065036 226.92880943 29.21929693 227.82014328 29.39305401 228.73848724 C29.93928873 231.25567297 29.93928873 231.25567297 32 234 C34.60046199 223.73095069 37.20038435 213.4617649 39.79968262 203.19242096 C41.00764613 198.4200473 42.21577162 193.64771478 43.42431641 188.87548828 C46.40574404 177.1022034 49.38354546 165.3280098 52.35565186 153.55236816 C52.99079921 151.03644584 53.62647268 148.52065687 54.26220703 146.00488281 C55.22961916 142.17532636 56.19446715 138.34513309 57.15716553 134.51438904 C57.5076308 133.12125025 57.85889413 131.72831196 58.21099854 130.33558655 C58.68846177 128.44629002 59.16268709 126.55617607 59.63671875 124.66601562 C59.90186279 123.61273071 60.16700684 122.5594458 60.44018555 121.47424316 C61.07355961 119.09768177 61.07355961 119.09768177 61 117 C65.7011748 116.69637887 68.32997897 117.34740076 72.359375 119.75390625 C73.37990967 120.35380371 74.40044434 120.95370117 75.4519043 121.57177734 C77.08446167 122.55718506 77.08446167 122.55718506 78.75 123.5625 C79.89869123 124.24305846 81.04820201 124.92223533 82.19848633 125.60009766 C84.59526055 127.01382989 86.98837569 128.4334915 89.37939453 129.85693359 C95.11154043 133.2606419 100.90419118 136.55922497 106.6875 139.875 C114.45553621 144.34214147 122.20062964 148.83853634 129.81518555 153.56396484 C132.69378614 155.44243582 132.69378614 155.44243582 136 156 C136.12178273 156.68972806 136.24356546 157.37945612 136.36903858 158.09008503 C139.68451083 176.83670966 143.13072968 195.55557061 146.66796875 214.26171875 C146.79595675 214.93877751 146.92394475 215.61583626 147.05581117 216.31341195 C148.26703568 222.72025087 149.47937337 229.12687815 150.69466686 235.53294659 C152.23277809 243.64102038 153.76484429 251.75018797 155.2892248 259.8608548 C156.37287516 265.62390196 157.46313081 271.38567529 158.55838376 277.14652854 C159.20882141 280.56868954 159.85631982 283.99134568 160.49666405 287.415411 C161.20463876 291.20024158 161.92623429 294.98240123 162.64916992 298.7644043 C162.85854187 299.89501282 163.06791382 301.02562134 163.28363037 302.19049072 C163.4810936 303.21158432 163.67855682 304.23267792 163.88200378 305.28471375 C164.05065036 306.17659236 164.21929693 307.06847097 164.39305401 307.98737621 C164.69349227 308.98362499 164.69349227 308.98362499 165 310 C165.66 310.33 166.32 310.66 167 311 C167.22280467 310.11236387 167.22280467 310.11236387 167.45011044 309.20679569 C171.05991259 294.82665111 174.67357861 280.44748175 178.29157925 266.06939793 C180.04110266 259.1163234 181.78930332 252.16292125 183.53442383 245.20874023 C185.05497707 239.14945784 186.57797792 233.09079696 188.10395581 227.03287834 C188.91231098 223.82345652 189.71904781 220.61364179 190.52358818 217.40326118 C191.42060783 213.82473835 192.32194927 210.24733121 193.22436523 206.67016602 C193.49194138 205.59842636 193.75951752 204.52668671 194.03520203 203.42247009 C194.28058716 202.45346771 194.52597229 201.48446533 194.77879333 200.48609924 C194.99172751 199.63897149 195.20466169 198.79184374 195.42404842 197.91904545 C196 196 196 196 197 195 C203.96582046 195.14100851 208.86631068 198.50497316 214.6875 202.0625 C216.82200106 203.33877214 218.95745882 204.61344527 221.09375 205.88671875 C222.21394531 206.55751465 223.33414062 207.22831055 224.48828125 207.91943359 C231.62866434 212.17055603 238.88632078 216.22349631 246.11791992 220.31665039 C252.99638741 224.22797536 259.746411 228.28381365 266.42895508 232.51806641 C268.79420174 234.16645939 268.79420174 234.16645939 271 234 C268.84615762 246.57997609 265.89601444 258.87691834 262.7421875 271.23828125 C262.20816642 273.34695318 261.67460624 275.45574187 261.14146423 277.56463623 C259.99330545 282.10256919 258.84215153 286.63972756 257.68862915 291.17630005 C255.84933052 298.41041358 254.01718844 305.6463276 252.1862793 312.88256836 C250.22911006 320.61644106 248.27155651 328.35021485 246.31163025 336.08338928 C239.24108991 363.98179556 232.1940547 391.88611912 225.15865326 419.79340649 C223.11843381 427.88604328 221.0764127 435.97822094 219.03187197 444.06976712 C217.62430816 449.64081197 216.2184531 455.21228616 214.81394559 460.78410232 C213.99874191 464.01785328 213.18249599 467.25133181 212.36469841 470.48442841 C211.47373285 474.00737191 210.58574001 477.53105177 209.69848633 481.05493164 C209.43743544 482.08416402 209.17638454 483.1133964 208.90742302 484.17381763 C207.7542141 488.7662561 206.67152564 493.30637131 206 498 C209.83404835 496.56765741 213.29062018 494.79605406 216.83984375 492.76171875 C218.54346069 491.7881543 218.54346069 491.7881543 220.28149414 490.79492188 C224.65920448 488.27458986 229.03351799 485.74830223 233.40461731 483.21652222 C237.45561431 480.87463264 241.53379734 478.58928861 245.6328125 476.33203125 C247.60953517 475.22163925 249.58610682 474.11097836 251.5625 473 C252.93426392 472.26463013 252.93426392 472.26463013 254.33374023 471.5144043 C255.17364502 471.03527588 256.0135498 470.55614746 256.87890625 470.0625 C257.6066626 469.66160156 258.33441895 469.26070313 259.08422852 468.84765625 C264.66059527 463.46955715 265.72513538 452.66722102 267.52392578 445.43432617 C267.86809656 444.06476365 268.21268043 442.69530488 268.55764103 441.32594109 C269.49528807 437.59897392 270.42720031 433.87059371 271.35816169 430.1419518 C272.35325406 426.16093863 273.35384604 422.181308 274.35383606 418.20152283 C276.28361172 410.51794433 278.20869874 402.83319912 280.13209838 395.14802235 C282.56438184 385.43030223 285.00184952 375.71388407 287.43969727 365.99755859 C287.7693406 364.68369344 287.7693406 364.68369344 288.10564339 363.34328556 C289.94213498 356.02355048 289.94213498 356.02355048 290.76809818 352.73171425 C292.09894095 347.42753372 293.42921824 342.12321175 294.75909334 336.81878853 C299.88295075 316.38237924 305.02636397 295.95116362 310.21463776 275.53100777 C311.12636368 271.94259846 312.03737614 268.35400875 312.94818115 264.7653656 C315.40130897 255.10160766 317.85660014 245.43843497 320.32402897 235.77831745 C321.2970445 231.96399057 322.26534933 228.14847996 323.23230553 224.33261299 C323.67175811 222.60290792 324.11330734 220.87373387 324.55716896 219.14515495 C325.15150751 216.83003702 325.73863474 214.51320739 326.32397461 212.19580078 C326.49656359 211.5312044 326.66915257 210.86660803 326.84697151 210.18187237 C327.71003169 206.73014878 328.35851898 203.55968775 328 200 C326.20099719 198.25511289 326.20099719 198.25511289 323.6640625 196.9765625 C322.71418457 196.43773437 321.76430664 195.89890625 320.78564453 195.34375 C319.22112549 194.49296875 319.22112549 194.49296875 317.625 193.625 C315.42700891 192.38815309 313.22909499 191.15116902 311.03125 189.9140625 C309.88011719 189.27500977 308.72898437 188.63595703 307.54296875 187.97753906 C301.69486248 184.72540765 295.91599506 181.35232874 290.125 178 C289.06361816 177.38979004 288.00223633 176.77958008 286.90869141 176.15087891 C285.88952637 175.56483887 284.87036133 174.97879883 283.8203125 174.375 C282.84352539 173.81554687 281.86673828 173.25609375 280.86035156 172.6796875 C278.94075766 171.55244219 277.04134741 170.39015835 275.16308594 169.1953125 C273.84099121 168.35613281 273.84099121 168.35613281 272.4921875 167.5 C271.71987793 166.9946875 270.94756836 166.489375 270.15185547 165.96875 C268.08700833 164.82548101 268.08700833 164.82548101 266.00537109 165.19067383 C263.69408418 166.12346128 261.58830921 167.21419215 259.421875 168.44921875 C258.06835938 169.21733887 258.06835938 169.21733887 256.6875 170.00097656 C255.2334375 170.83580566 255.2334375 170.83580566 253.75 171.6875 C252.74453125 172.25823242 251.7390625 172.82896484 250.703125 173.41699219 C245.23037168 176.53436189 239.79486286 179.70671201 234.390625 182.94140625 C233.32102539 183.57796143 232.25142578 184.2145166 231.14941406 184.87036133 C229.08786561 186.10073819 227.03223875 187.34110506 224.98339844 188.5925293 C219.90907908 191.61813772 215.95375295 193.76846516 210 194 C208.37176506 190.26436207 207.4363309 186.6986037 206.68725586 182.69677734 C206.45038559 181.4455307 206.21351532 180.19428406 205.96946716 178.90512085 C205.71788054 177.54873484 205.46634051 176.19234018 205.21484375 174.8359375 C204.95155815 173.43770015 204.68776146 172.03955894 204.42347717 170.64151001 C203.73071628 166.97085704 203.04367937 163.29915798 202.35821533 159.62713623 C201.25898014 153.74280729 200.15192064 147.85995049 199.04318428 141.97740555 C198.65720975 139.92432083 198.27421481 137.87069668 197.8915863 135.81698608 C197.54100914 133.9495726 197.54100914 133.9495726 197.18334961 132.04443359 C196.97842392 130.94698822 196.77349823 129.84954285 196.56236267 128.71884155 C195.77928392 124.37481793 195.77928392 124.37481793 192.72875977 121.42871094 C191.72643311 120.86958008 190.72410645 120.31044922 189.69140625 119.734375 C188.56379883 119.09862549 187.43619141 118.46287598 186.27441406 117.80786133 C185.03712791 117.12187412 183.79982277 116.43592117 182.5625 115.75 C181.29986824 115.04100291 180.03783021 114.3309475 178.77636719 113.61987305 C176.16213514 112.1468016 173.54584163 110.67749275 170.92822266 109.21044922 C164.84120578 105.79250105 158.79576617 102.30271298 152.75 98.8125 C151.68724854 98.20180664 150.62449707 97.59111328 149.52954102 96.96191406 C148.02218384 96.09324707 148.02218384 96.09324707 146.484375 95.20703125 C145.54142578 94.66643066 144.59847656 94.12583008 143.62695312 93.56884766 C140.58176142 91.75022294 137.68130564 89.7612396 134.82519531 87.65893555 C132.91267026 86.76479225 132.91267026 86.76479225 130.56860352 87.71899414 C128.11600284 88.94214743 125.70816274 90.19469237 123.32421875 91.546875 C121.97517456 92.31016113 121.97517456 92.31016113 120.59887695 93.08886719 C119.63812256 93.63704102 118.67736816 94.18521484 117.6875 94.75 C116.18932739 95.59933105 116.18932739 95.59933105 114.66088867 96.46582031 C109.17961944 99.582863 103.72364584 102.73975507 98.2890625 105.9375 C97.20536377 106.57461914 96.12166504 107.21173828 95.00512695 107.86816406 C92.90704112 109.10484263 90.81173032 110.34624355 88.71948242 111.59277344 C87.29019409 112.43630371 87.29019409 112.43630371 85.83203125 113.296875 C84.99389893 113.79541992 84.1557666 114.29396484 83.29223633 114.80761719 C79.43382531 116.81469775 79.43382531 116.81469775 77 117 C74.5466877 115.26385975 74.02202867 114.08904465 73.29374695 111.14517212 C73.13582169 109.98303192 72.97789642 108.82089172 72.81518555 107.62353516 C72.62467228 106.29092354 72.43370744 104.95837643 72.24235535 103.62588501 C72.14511862 102.91999866 72.04788189 102.21411232 71.94769859 101.48683548 C71.41414224 97.71605817 70.79551148 93.95889913 70.18945312 90.19921875 C69.42273245 85.42849569 68.68137473 80.65925598 68.04907227 75.86865234 C66.17081396 56.64587797 66.17081396 56.64587797 56.08642578 41.21118164 C51.50923498 38.22569724 46.70366593 36.03504102 41.61978149 34.05639648 C38.04083892 32.61322943 34.94392165 30.74907564 31.65625 28.73046875 C28.50634889 26.91446688 25.35362685 25.10343887 22.20068359 23.29272461 C21.12125488 22.67276611 20.04182617 22.05280762 18.9296875 21.4140625 C17.91100586 20.82915039 16.89232422 20.24423828 15.84277344 19.64160156 C13.34694261 18.20034714 10.86197464 16.7431071 8.3828125 15.2734375 C7.73119141 14.89034424 7.07957031 14.50725098 6.40820312 14.11254883 C4.78184208 13.15485731 3.16019168 12.18917757 1.5390625 11.22265625 C-3.23393282 8.92427543 -5.98405508 10.28539816 -10.234375 12.7890625 Z M-63 52 C-62.44204568 59.78551622 -61.32347932 67.32912361 -59.82397461 74.98510742 C-59.60147852 76.14430223 -59.37898243 77.30349703 -59.14974403 78.49781895 C-58.53549993 81.69255552 -57.91649055 84.88632514 -57.29549527 88.07975483 C-56.62120629 91.55403003 -55.95341012 95.02955356 -55.28489685 98.50494385 C-54.12071165 104.5529846 -52.95289711 110.60031492 -51.78265381 116.64718628 C-49.91983175 126.27353276 -48.06470961 135.9013542 -46.21142578 145.52954102 C-46.05399824 146.34737214 -45.89657069 147.16520326 -45.73437262 148.00781715 C-45.08878794 151.36167571 -44.44323007 154.71553941 -43.79776502 158.06942099 C-42.80153186 163.24583379 -41.80476544 168.42214357 -40.80762887 173.59838241 C-33.14351669 213.3859593 -25.55906202 253.18867577 -17.98253471 292.99300903 C-16.73271581 299.55893657 -15.48234915 306.12475962 -14.23165894 312.69052124 C-12.38094143 322.40627456 -10.53090738 332.12215784 -8.68128896 341.83812046 C-8.21603078 344.28184183 -7.75063988 346.7255379 -7.28521538 349.1692276 C-6.56291435 352.96181288 -5.8410799 356.75448667 -5.11960614 360.54722941 C-4.85902197 361.91673595 -4.59828887 363.28621417 -4.33738601 364.65566003 C-3.98014368 366.53093324 -3.62352976 368.40632614 -3.26693726 370.28172302 C-3.04875021 371.41906671 -2.83056316 372.55641039 -2.60576439 373.72821903 C-2.20464531 375.89469466 -1.82822814 378.06590191 -1.47768593 380.24113369 C-1.31674635 381.23002118 -1.15580677 382.21890867 -0.98999023 383.23776245 C-0.79292229 384.53051999 -0.79292229 384.53051999 -0.59187317 385.84939384 C-0.10362881 388.31825553 -0.10362881 388.31825553 2.56005859 390.54956055 C4.15068115 391.36614136 4.15068115 391.36614136 5.7734375 392.19921875 C6.35032318 392.5111467 6.92720886 392.82307465 7.52157593 393.14445496 C8.73124009 393.79712975 9.94903644 394.43493938 11.17419434 395.05804443 C14.08767347 396.5611441 16.89705789 398.24006047 19.7265625 399.89453125 C22.02475315 401.20287128 24.32401967 402.50909532 26.625 403.8125 C29.0735509 405.20201054 31.52138076 406.59278431 33.96875 407.984375 C34.56817413 408.3250148 35.16759827 408.6656546 35.78518677 409.01661682 C39.53259711 411.15067716 43.25778457 413.31887503 46.96875 415.515625 C47.84966309 416.03535889 48.73057617 416.55509277 49.63818359 417.09057617 C51.25961885 418.05028883 52.87734087 419.01631139 54.49072266 419.98950195 C56.29290635 421.05327097 58.14221232 422.03662286 60 423 C62.13515966 422.21520464 62.13515966 422.21520464 62.63259411 420.32537174 C62.81339173 419.59313106 62.99418936 418.86089037 63.1804657 418.10646057 C63.39186691 417.26758804 63.60326813 416.42871552 63.82107544 415.56442261 C64.04600677 414.63638824 64.27093811 413.70835388 64.50268555 412.75219727 C64.74532639 411.77944351 64.98796722 410.80668976 65.23796082 409.80445862 C66.0452113 406.56029045 66.84083703 403.31338049 67.63671875 400.06640625 C68.19922707 397.79822002 68.76253788 395.53023266 69.32661438 393.26243591 C70.81880036 387.2554901 72.30154183 381.24625406 73.78192139 375.23638916 C76.13085918 365.70686077 78.49389644 356.18082086 80.85700417 346.65479851 C81.67226661 343.36273993 82.48354543 340.0697217 83.29411316 336.77650452 C86.9927126 321.7946177 90.9329612 306.88596946 95 292 C96.8125 291.3125 96.8125 291.3125 99 291 C101.60791631 292.60738754 102.01062802 294.03667241 102.86331272 296.97889519 C103.09392871 298.20852549 103.3245447 299.43815578 103.56214905 300.70504761 C103.69397487 301.39011985 103.82580068 302.07519209 103.96162122 302.7810241 C104.40102294 305.07975397 104.82358502 307.3812602 105.24633789 309.68310547 C105.55778086 311.33078015 105.87027094 312.9782572 106.18373108 314.62554932 C106.85679395 318.17487411 107.52241294 321.72548651 108.18232918 325.2772789 C109.22579644 330.8931413 110.28565593 336.50583222 111.34776306 342.11819458 C113.02587137 350.99633507 114.69288237 359.87651756 116.35521644 368.75762379 C119.33177234 384.65892866 122.32376249 400.5573265 125.32477945 416.45403206 C126.37765022 422.03384349 127.42459258 427.61472568 128.46672642 433.19655204 C129.11603862 436.66957754 129.76943601 440.1418259 130.42381859 443.61389923 C130.72634153 445.22401943 131.02709669 446.83447293 131.32595062 448.44527817 C131.73423767 450.64475545 132.14877825 452.84296631 132.56483459 455.04098511 C132.79507356 456.27136946 133.02531252 457.50175381 133.26252842 458.76942253 C134.53009373 464.59564656 134.53009373 464.59564656 138.41650391 468.81420898 C139.42632324 469.36923096 140.43614258 469.92425293 141.4765625 470.49609375 C142.61125977 471.13063477 143.74595703 471.76517578 144.91503906 472.41894531 C146.15161 473.09194886 147.38826558 473.76479691 148.625 474.4375 C149.88860349 475.1386653 151.15129062 475.84148439 152.41308594 476.54589844 C154.35092316 477.62748844 156.28927773 478.70799069 158.23071289 479.78311157 C165.62690474 483.8816611 172.90198116 488.18137438 180.18212891 492.48217773 C181.09655762 493.01915283 182.01098633 493.55612793 182.953125 494.109375 C183.73848633 494.57311523 184.52384766 495.03685547 185.33300781 495.51464844 C188.83064351 497.46261764 192.40804374 499.23350756 196 501 C205.44714134 465.09635116 214.509404 429.10166536 223.48961353 393.07892895 C224.73233424 388.09420494 225.97539632 383.10956616 227.21875 378.125 C227.46373922 377.14278788 227.70872845 376.16057575 227.96114159 375.14859962 C232.83691454 355.60614984 237.78338465 336.08202547 242.75 316.5625 C249.31835843 290.74495694 255.75741844 264.89850509 262 239 C261.36835938 238.64921387 260.73671875 238.29842773 260.0859375 237.93701172 C247.05369454 230.69087807 234.0810097 223.36765504 221.234375 215.79638672 C219.85378906 214.98451904 219.85378906 214.98451904 218.4453125 214.15625 C217.65656738 213.69025391 216.86782227 213.22425781 216.05517578 212.74414062 C211.40904931 210.0917571 206.70235424 207.55103123 202 205 C201.86030446 205.55970395 201.72060892 206.1194079 201.57668018 206.69607258 C198.15477825 220.40590385 194.73152397 234.11539687 191.30682087 247.82452869 C189.65059585 254.45455364 187.99480484 261.08468638 186.34008789 267.71508789 C184.7396517 274.12798252 183.13793685 280.54055695 181.53548241 286.95294762 C180.92794652 289.38492194 180.3208209 291.81699878 179.71413612 294.24918556 C176.89809854 305.53758715 174.07511253 316.82420879 171.14916992 328.0847168 C170.9444296 328.88158055 170.73968927 329.67844431 170.5287447 330.49945545 C169.1171619 335.8828381 169.1171619 335.8828381 168 337 C166.33382885 337.04063832 164.66611905 337.042721 163 337 C161.26460984 333.06420565 160.35836435 329.27172341 159.57156372 325.04771423 C159.44200346 324.36022758 159.3124432 323.67274092 159.17895687 322.96442133 C158.74747473 320.668477 158.32324981 318.37125174 157.89892578 316.07397461 C157.59033584 314.42448558 157.28125147 312.77508897 156.97171021 311.1257782 C156.30665084 307.57790946 155.64453524 304.02950834 154.9845314 300.48069572 C153.94045698 294.86998578 152.88639135 289.26118245 151.83029175 283.65272522 C148.82865868 267.70568345 145.83508277 251.75716455 142.86376953 235.80444336 C141.22210354 226.99094626 139.56932379 218.17961006 137.90406787 209.37053877 C137.02348799 204.70957754 136.14886616 200.04766594 135.28805923 195.38300896 C134.47889611 190.99822954 133.65536935 186.61639784 132.82069016 182.23640633 C132.51692475 180.62816813 132.21853736 179.01890347 131.92591858 177.40859985 C131.52580308 175.21115767 131.10658173 173.0182067 130.68240356 170.82530212 C130.33786227 168.98223937 130.33786227 168.98223937 129.98636055 167.10194302 C128.35067904 161.9579915 124.99409698 159.77337404 120.421875 157.2578125 C119.51977295 156.75572266 118.6176709 156.25363281 117.68823242 155.73632812 C116.71861572 155.20458984 115.74899902 154.67285156 114.75 154.125 C112.67747539 152.97298984 110.6058914 151.81928613 108.53515625 150.6640625 C107.46281738 150.06625977 106.39047852 149.46845703 105.28564453 148.85253906 C98.88716893 145.24489804 92.56685009 141.50168412 86.24707031 137.75830078 C80.27914661 134.24696977 74.23726603 131.00787465 68 128 C65.84391621 134.18430388 64.04251166 140.39116917 62.4597168 146.74462891 C62.22507721 147.6746019 61.99043762 148.60457489 61.74868774 149.56272888 C60.97899818 152.61654474 60.21412504 155.67154539 59.44921875 158.7265625 C58.90770238 160.878287 58.36585167 163.02992738 57.82368469 165.18148804 C56.39771902 170.84357692 54.97569552 176.50664805 53.5546875 182.16998291 C51.29279209 191.18174484 49.02473586 200.19195832 46.75699806 209.20225143 C45.9750088 212.31151871 45.19458909 215.42117623 44.41447449 218.53091431 C41.02123141 232.04135091 37.53970665 245.5272037 34 259 C32.02 259 30.04 259 28 259 C26.45609886 254.67872031 25.43433703 250.47025866 24.63212585 245.95437622 C24.50891568 245.2688574 24.38570552 244.58333858 24.2587617 243.87704647 C23.99072984 242.38283512 23.72473041 240.88825808 23.46053314 239.39336395 C23.03040974 236.95977495 22.59506605 234.52716951 22.15834045 232.09475708 C21.6875215 229.47236838 21.21700129 226.84993029 20.74800432 224.22721505 C19.58474901 217.72482494 18.40351599 211.22588351 17.21138 204.72872925 C17.03810753 203.78436229 16.86483506 202.83999533 16.6863119 201.86701119 C15.971494 197.97339747 15.25600215 194.07990806 14.53999841 190.18651223 C12.51033786 179.14672142 10.49885744 168.1043489 8.54272461 157.05126953 C6.98705801 148.26167757 5.3921145 139.48025124 3.75086433 130.70622241 C2.88461071 126.06720948 2.03835928 121.42652035 1.23962975 116.77536392 C0.48730072 112.39722382 -0.31706849 108.03185555 -1.16134071 103.67054367 C-1.46083523 102.07455855 -1.74153243 100.47490503 -2.00123215 98.8719635 C-3.39821022 89.52407935 -3.39821022 89.52407935 -9.03670502 82.30156231 C-12.19926974 80.19712321 -15.54547002 78.57676933 -19 77 C-20.27920239 76.27231118 -21.55114237 75.5313321 -22.80810547 74.76586914 C-23.81760254 74.19473389 -24.82709961 73.62359863 -25.8671875 73.03515625 C-27.01340576 72.38417969 -28.15962402 71.73320313 -29.34057617 71.0625 C-29.91923431 70.73507813 -30.49789246 70.40765625 -31.09408569 70.0703125 C-40.13145934 64.9560978 -49.14959664 59.81841203 -58.00146484 54.38696289 C-60.33694436 52.70674394 -60.33694436 52.70674394 -63 52 Z M97 316 C93.58416948 329.39281569 90.17648686 342.78768144 86.77825069 356.18497276 C85.20022898 362.4051995 83.61957126 368.62473187 82.03295898 374.84277344 C80.50309936 380.83879696 78.9800732 386.83651749 77.46185493 392.83549881 C76.88018559 395.12875326 76.29601842 397.4213756 75.70936394 399.71335983 C74.89076883 402.9132473 74.08092731 406.11522758 73.27319336 409.31787109 C73.02647888 410.27380661 72.7797644 411.22974213 72.52557373 412.21464539 C72.30818039 413.08405258 72.09078705 413.95345978 71.86680603 414.84921265 C71.6741513 415.60692648 71.48149656 416.36464031 71.28300381 417.14531517 C70.80394413 419.08873348 70.80394413 419.08873348 72 421 C73.11689209 420.33581055 73.11689209 420.33581055 74.25634766 419.65820312 C100.57672179 404.01331088 100.57672179 404.01331088 113 397 C111.58111621 387.23274973 109.83066685 377.54436499 107.9609375 367.85546875 C107.67212613 366.34951166 107.38352532 364.84351417 107.09512329 363.33747864 C106.34429122 359.41963066 105.59064651 355.50232913 104.83636475 351.58514404 C104.06365108 347.56946594 103.29366772 343.55326442 102.5234375 339.53710938 C101.01825941 331.69089865 99.51010218 323.8452645 98 316 C97.67 316 97.34 316 97 316 Z " fill="#000000" transform="translate(124,0)"/>
</svg>
